<svg xmlns="http://www.w3.org/2000/svg" viewBox="0 0 300 164"><title>cascading</title><rect x="113.28" y="120.438" width="186.795" height="38.431" style="fill:#a0bfad"/><rect y="71.914" width="81.091" height="16.671" style="fill:#d4d9e2"/><path d="M.126,5.946V57.72H69.161V31.394L43.716,5.946Z" style="fill:#d4d9e2;stroke:#dfdfdf"/><g style="isolation:isolate"><path d="M8.476,44.471,9.57,44.3a1.528,1.528,0,0,0,.513,1.008,1.782,1.782,0,0,0,1.176.35,1.73,1.73,0,0,0,1.131-.31.928.928,0,0,0,.369-.728.672.672,0,0,0-.326-.59,4.829,4.829,0,0,0-1.131-.375,10.376,10.376,0,0,1-1.686-.531,1.612,1.612,0,0,1-.956-1.5,1.682,1.682,0,0,1,.2-.808A1.782,1.782,0,0,1,9.4,40.2a2.273,2.273,0,0,1,.7-.323,3.352,3.352,0,0,1,.956-.132,3.793,3.793,0,0,1,1.349.221,1.841,1.841,0,0,1,.857.6,2.338,2.338,0,0,1,.38,1.011l-1.081.148a1.184,1.184,0,0,0-.427-.787,1.562,1.562,0,0,0-1-.283,1.809,1.809,0,0,0-1.088.252.735.735,0,0,0-.326.59.6.6,0,0,0,.136.387.964.964,0,0,0,.424.3q.165.061.977.283a13.636,13.636,0,0,1,1.637.513,1.661,1.661,0,0,1,.728.581,1.621,1.621,0,0,1,.265.946,1.854,1.854,0,0,1-.323,1.041,2.085,2.085,0,0,1-.931.756,3.378,3.378,0,0,1-1.376.267,3.066,3.066,0,0,1-1.939-.528A2.453,2.453,0,0,1,8.476,44.471Z" style="fill:#758295"/><path d="M17.625,45.43l.16.977a4.138,4.138,0,0,1-.836.1,1.892,1.892,0,0,1-.934-.191,1.058,1.058,0,0,1-.467-.5,3.959,3.959,0,0,1-.135-1.3V40.754H14.6v-.86h.811V38.277l1.1-.663v2.28h1.112v.86H16.513v3.815a1.931,1.931,0,0,0,.058.609.462.462,0,0,0,.191.215.738.738,0,0,0,.378.08A3.709,3.709,0,0,0,17.625,45.43Z" style="fill:#758295"/><path d="M18.657,48.932l-.123-1.038a2.491,2.491,0,0,0,.633.1,1.212,1.212,0,0,0,.59-.123,1.012,1.012,0,0,0,.363-.344,5.508,5.508,0,0,0,.338-.823c.02-.062.053-.152.1-.271L18.08,39.894h1.192l1.358,3.778q.264.72.473,1.512a14.383,14.383,0,0,1,.455-1.487l1.394-3.8h1.106L21.576,46.53a13.1,13.1,0,0,1-.62,1.48,2.186,2.186,0,0,1-.677.8,1.6,1.6,0,0,1-.909.255A2.218,2.218,0,0,1,18.657,48.932Z" style="fill:#758295"/><path d="M24.974,46.419V37.411H26.08v9.008Z" style="fill:#758295"/><path d="M32.261,44.317l1.143.142a2.787,2.787,0,0,1-1,1.554,3.4,3.4,0,0,1-4.139-.328,3.448,3.448,0,0,1-.838-2.474,3.609,3.609,0,0,1,.847-2.556,2.873,2.873,0,0,1,2.2-.909,2.791,2.791,0,0,1,2.139.891,3.539,3.539,0,0,1,.829,2.507c0,.065,0,.164-.006.3H28.568a2.5,2.5,0,0,0,.609,1.646,1.811,1.811,0,0,0,1.364.572,1.692,1.692,0,0,0,1.039-.32A2.115,2.115,0,0,0,32.261,44.317ZM28.63,42.529h3.643a2.206,2.206,0,0,0-.417-1.235,1.7,1.7,0,0,0-1.37-.639,1.757,1.757,0,0,0-1.281.511A2.012,2.012,0,0,0,28.63,42.529Z" style="fill:#758295"/><path d="M35.106,46.419v-1.26h1.26v1.26Z" style="fill:#758295"/><path d="M42.547,44.029l1.088.141a2.828,2.828,0,0,1-.913,1.761,2.662,2.662,0,0,1-1.8.635,2.8,2.8,0,0,1-2.154-.875,3.551,3.551,0,0,1-.814-2.51,4.545,4.545,0,0,1,.35-1.849,2.442,2.442,0,0,1,1.066-1.189,3.159,3.159,0,0,1,1.558-.4,2.705,2.705,0,0,1,1.739.538,2.465,2.465,0,0,1,.866,1.527l-1.075.166a1.783,1.783,0,0,0-.544-.99,1.409,1.409,0,0,0-.943-.332,1.718,1.718,0,0,0-1.358.6,2.848,2.848,0,0,0-.522,1.9,2.938,2.938,0,0,0,.5,1.911,1.639,1.639,0,0,0,1.315.6,1.55,1.55,0,0,0,1.087-.4A1.984,1.984,0,0,0,42.547,44.029Z" style="fill:#758295"/><path d="M44.139,44.471l1.093-.172a1.536,1.536,0,0,0,.513,1.008,1.787,1.787,0,0,0,1.177.35,1.73,1.73,0,0,0,1.131-.31.93.93,0,0,0,.368-.728.673.673,0,0,0-.325-.59,4.848,4.848,0,0,0-1.131-.375,10.431,10.431,0,0,1-1.687-.531,1.609,1.609,0,0,1-.955-1.5,1.693,1.693,0,0,1,.2-.808,1.8,1.8,0,0,1,.544-.617,2.28,2.28,0,0,1,.7-.323,3.347,3.347,0,0,1,.956-.132,3.787,3.787,0,0,1,1.348.221,1.836,1.836,0,0,1,.857.6,2.326,2.326,0,0,1,.381,1.011l-1.081.148a1.184,1.184,0,0,0-.427-.787,1.567,1.567,0,0,0-1-.283,1.805,1.805,0,0,0-1.087.252.732.732,0,0,0-.326.59.608.608,0,0,0,.135.387.969.969,0,0,0,.424.3q.166.061.977.283a13.636,13.636,0,0,1,1.637.513,1.659,1.659,0,0,1,.729.581,1.621,1.621,0,0,1,.264.946,1.846,1.846,0,0,1-.323,1.041,2.077,2.077,0,0,1-.93.756,3.38,3.38,0,0,1-1.377.267,3.065,3.065,0,0,1-1.938-.528A2.449,2.449,0,0,1,44.139,44.471Z" style="fill:#758295"/><path d="M50.431,44.471l1.093-.172a1.536,1.536,0,0,0,.513,1.008,1.787,1.787,0,0,0,1.177.35,1.73,1.73,0,0,0,1.131-.31.93.93,0,0,0,.368-.728.673.673,0,0,0-.325-.59,4.848,4.848,0,0,0-1.131-.375,10.431,10.431,0,0,1-1.687-.531,1.609,1.609,0,0,1-.955-1.5,1.693,1.693,0,0,1,.2-.808,1.8,1.8,0,0,1,.544-.617,2.28,2.28,0,0,1,.7-.323,3.347,3.347,0,0,1,.956-.132,3.787,3.787,0,0,1,1.348.221,1.836,1.836,0,0,1,.857.6,2.326,2.326,0,0,1,.381,1.011l-1.081.148a1.184,1.184,0,0,0-.427-.787,1.567,1.567,0,0,0-1-.283,1.805,1.805,0,0,0-1.087.252.732.732,0,0,0-.326.59.608.608,0,0,0,.135.387.969.969,0,0,0,.424.3q.166.061.977.283a13.636,13.636,0,0,1,1.637.513,1.659,1.659,0,0,1,.729.581,1.621,1.621,0,0,1,.264.946,1.846,1.846,0,0,1-.323,1.041,2.082,2.082,0,0,1-.93.756,3.38,3.38,0,0,1-1.377.267,3.065,3.065,0,0,1-1.938-.528A2.449,2.449,0,0,1,50.431,44.471Z" style="fill:#758295"/></g><path d="M69.161,31.394,43.716,5.946V31.394Z" style="fill:#bfc6d2;stroke:#dfdfdf"/><g style="isolation:isolate"><path d="M4.921,83.189a3,3,0,0,1-.851.531,2.47,2.47,0,0,1-.879.155A1.706,1.706,0,0,1,2,83.5a1.248,1.248,0,0,1-.416-.966,1.315,1.315,0,0,1,.569-1.089,1.943,1.943,0,0,1,.573-.26,5.638,5.638,0,0,1,.708-.12,7.322,7.322,0,0,0,1.42-.274c0-.109,0-.179,0-.208a.881.881,0,0,0-.225-.686,1.334,1.334,0,0,0-.907-.27,1.412,1.412,0,0,0-.83.2,1.209,1.209,0,0,0-.4.7l-.778-.106a1.922,1.922,0,0,1,.349-.807,1.527,1.527,0,0,1,.7-.474,3.152,3.152,0,0,1,1.066-.166,2.836,2.836,0,0,1,.978.141,1.3,1.3,0,0,1,.553.357A1.263,1.263,0,0,1,5.621,80a4.564,4.564,0,0,1,.039.734V81.8a11.22,11.22,0,0,0,.051,1.4,1.765,1.765,0,0,0,.2.565H5.081A1.691,1.691,0,0,1,4.921,83.189ZM4.855,81.41a5.811,5.811,0,0,1-1.3.3,3.046,3.046,0,0,0-.694.16.684.684,0,0,0-.314.259.7.7,0,0,0,.13.909,1.041,1.041,0,0,0,.706.212,1.645,1.645,0,0,0,.818-.2,1.249,1.249,0,0,0,.527-.551,1.932,1.932,0,0,0,.128-.8Z"/><path d="M9.066,81.061a.89.89,0,0,0,.556-.184.838.838,0,0,0,.285-.48,5.418,5.418,0,0,0,.075-1.043c0-.493.012-.817.027-.974a1.868,1.868,0,0,1,.148-.6,1.068,1.068,0,0,1,.268-.361,1.09,1.09,0,0,1,.407-.2,2.348,2.348,0,0,1,.548-.045h.248v.7h-.137a.827.827,0,0,0-.611.166,1.211,1.211,0,0,0-.15.741,12.6,12.6,0,0,1-.049,1.464,1.665,1.665,0,0,1-.272.73,1.618,1.618,0,0,1-.6.456,1.353,1.353,0,0,1,.705.621,3.141,3.141,0,0,1,.219,1.37q0,.862.018,1.026a.617.617,0,0,0,.179.42.933.933,0,0,0,.564.119h.137v.7H11.38a2,2,0,0,1-.628-.072,1.043,1.043,0,0,1-.469-.329,1.187,1.187,0,0,1-.241-.578,8.512,8.512,0,0,1-.06-1.145,5.862,5.862,0,0,0-.075-1.1.853.853,0,0,0-.285-.482.885.885,0,0,0-.556-.186Z"/><path d="M18.021,82.048l.783.1a2.033,2.033,0,0,1-.657,1.268,1.915,1.915,0,0,1-1.3.458,2.016,2.016,0,0,1-1.551-.631,2.554,2.554,0,0,1-.586-1.806,3.278,3.278,0,0,1,.252-1.333,1.754,1.754,0,0,1,.767-.855,2.273,2.273,0,0,1,1.122-.286,1.95,1.95,0,0,1,1.252.387,1.776,1.776,0,0,1,.624,1.1l-.774.119a1.286,1.286,0,0,0-.392-.712,1.01,1.01,0,0,0-.679-.239,1.239,1.239,0,0,0-.978.431,2.052,2.052,0,0,0-.376,1.365,2.116,2.116,0,0,0,.363,1.376,1.182,1.182,0,0,0,.947.429,1.119,1.119,0,0,0,.783-.287A1.433,1.433,0,0,0,18.021,82.048Z"/><path d="M19.189,81.42a2.421,2.421,0,0,1,.726-1.934,2.183,2.183,0,0,1,1.477-.522,2.109,2.109,0,0,1,1.584.635,2.416,2.416,0,0,1,.615,1.755,3.11,3.11,0,0,1-.272,1.426,1.92,1.92,0,0,1-.792.807,2.3,2.3,0,0,1-1.135.288,2.112,2.112,0,0,1-1.595-.633A2.528,2.528,0,0,1,19.189,81.42Zm.818,0a2,2,0,0,0,.394,1.351,1.312,1.312,0,0,0,1.978,0,2.051,2.051,0,0,0,.393-1.376,1.938,1.938,0,0,0-.4-1.321,1.312,1.312,0,0,0-1.975,0A2,2,0,0,0,20.007,81.42Z"/><path d="M24.506,83.769V77.283h.8v6.486Z"/><path d="M26.241,81.42a2.421,2.421,0,0,1,.725-1.934,2.187,2.187,0,0,1,1.478-.522,2.109,2.109,0,0,1,1.584.635,2.416,2.416,0,0,1,.615,1.755,3.11,3.11,0,0,1-.272,1.426,1.931,1.931,0,0,1-.792.807,2.3,2.3,0,0,1-1.135.288,2.11,2.11,0,0,1-1.595-.633A2.524,2.524,0,0,1,26.241,81.42Zm.818,0a2,2,0,0,0,.394,1.351,1.312,1.312,0,0,0,1.978,0,2.051,2.051,0,0,0,.393-1.376,1.943,1.943,0,0,0-.4-1.321,1.312,1.312,0,0,0-1.975,0A1.991,1.991,0,0,0,27.059,81.42Z"/><path d="M31.567,83.769v-4.7h.717v.713a1.923,1.923,0,0,1,.507-.659.877.877,0,0,1,.511-.16,1.553,1.553,0,0,1,.818.257l-.274.738a1.139,1.139,0,0,0-.584-.172.757.757,0,0,0-.469.157.843.843,0,0,0-.3.436,3.085,3.085,0,0,0-.133.929v2.46Z"/><path d="M34.814,79.977V79.07h.908v.907Zm0,3.792v-.908h.908v.908Z"/><path d="M39.486,83.879l.385-1.885h-.747v-.658H40l.328-1.607H39.124V79.07h1.34l.385-1.9h.664l-.385,1.9h1.393l.385-1.9h.668l-.385,1.9h.766v.659h-.9l-.332,1.607h1.23v.658H42.592l-.385,1.885h-.664l.381-1.885H40.535l-.385,1.885Zm1.181-2.543h1.39l.332-1.607H41Z"/><path d="M47.732,82.048l.784.1a2.034,2.034,0,0,1-.658,1.268,1.914,1.914,0,0,1-1.3.458,2.016,2.016,0,0,1-1.551-.631,2.559,2.559,0,0,1-.586-1.806,3.278,3.278,0,0,1,.252-1.333,1.76,1.76,0,0,1,.768-.855,2.269,2.269,0,0,1,1.121-.286,1.948,1.948,0,0,1,1.252.387,1.772,1.772,0,0,1,.624,1.1l-.774.119a1.28,1.28,0,0,0-.392-.712,1.008,1.008,0,0,0-.679-.239,1.235,1.235,0,0,0-.977.431,2.046,2.046,0,0,0-.376,1.365,2.122,2.122,0,0,0,.362,1.376,1.182,1.182,0,0,0,.947.429,1.117,1.117,0,0,0,.783-.287A1.433,1.433,0,0,0,47.732,82.048Z"/><path d="M49.1,82.269l.765-.071a1.328,1.328,0,0,0,.372.783,1.017,1.017,0,0,0,.7.244,1.223,1.223,0,0,0,.643-.168,1.375,1.375,0,0,0,.454-.45,2.647,2.647,0,0,0,.3-.758,4,4,0,0,0,.12-.974c0-.035,0-.088,0-.159a1.816,1.816,0,0,1-.652.617,1.784,1.784,0,0,1-.9.237,1.814,1.814,0,0,1-1.363-.584,2.14,2.14,0,0,1-.557-1.54,2.184,2.184,0,0,1,.582-1.588,1.941,1.941,0,0,1,1.457-.6,2.079,2.079,0,0,1,1.157.341,2.129,2.129,0,0,1,.8.971,4.771,4.771,0,0,1,.272,1.825,5.933,5.933,0,0,1-.269,1.98,2.318,2.318,0,0,1-.8,1.121,2.072,2.072,0,0,1-1.249.385,1.713,1.713,0,0,1-1.823-1.61Zm3.26-2.863a1.559,1.559,0,0,0-.364-1.088,1.146,1.146,0,0,0-.879-.4,1.21,1.21,0,0,0-.924.433,1.606,1.606,0,0,0-.394,1.124,1.384,1.384,0,0,0,.374,1.006,1.232,1.232,0,0,0,.922.387,1.183,1.183,0,0,0,.91-.387A1.525,1.525,0,0,0,52.355,79.406Z"/><path d="M54.134,82.269,54.9,82.2a1.328,1.328,0,0,0,.372.783,1.017,1.017,0,0,0,.7.244,1.223,1.223,0,0,0,.643-.168,1.375,1.375,0,0,0,.454-.45,2.647,2.647,0,0,0,.3-.758,4,4,0,0,0,.12-.974c0-.035,0-.088-.005-.159a1.816,1.816,0,0,1-.652.617,1.784,1.784,0,0,1-.9.237,1.814,1.814,0,0,1-1.363-.584,2.14,2.14,0,0,1-.557-1.54,2.184,2.184,0,0,1,.582-1.588,1.941,1.941,0,0,1,1.457-.6,2.079,2.079,0,0,1,1.157.341,2.123,2.123,0,0,1,.8.971,4.771,4.771,0,0,1,.272,1.825,5.933,5.933,0,0,1-.269,1.98,2.323,2.323,0,0,1-.8,1.121,2.077,2.077,0,0,1-1.25.385,1.713,1.713,0,0,1-1.823-1.61ZM57.4,79.406a1.559,1.559,0,0,0-.365-1.088,1.146,1.146,0,0,0-.879-.4,1.21,1.21,0,0,0-.924.433,1.606,1.606,0,0,0-.394,1.124,1.388,1.388,0,0,0,.374,1.006,1.232,1.232,0,0,0,.922.387,1.183,1.183,0,0,0,.91-.387A1.526,1.526,0,0,0,57.4,79.406Z"/><path d="M63.964,81.061v.721a.882.882,0,0,0-.555.186.851.851,0,0,0-.285.48,5.369,5.369,0,0,0-.076,1.042c0,.492-.011.817-.026.973a1.821,1.821,0,0,1-.148.6.989.989,0,0,1-.675.565,2.2,2.2,0,0,1-.549.049H61.4v-.7h.137a.82.82,0,0,0,.61-.166,1.213,1.213,0,0,0,.151-.745q0-1.106.04-1.4a1.749,1.749,0,0,1,.283-.785,1.374,1.374,0,0,1,.6-.458,1.488,1.488,0,0,1-.717-.644,3.152,3.152,0,0,1-.208-1.351c0-.575-.008-.919-.022-1.031a.593.593,0,0,0-.175-.414.951.951,0,0,0-.564-.117H61.4v-.7h.247a2.015,2.015,0,0,1,.629.071,1.022,1.022,0,0,1,.469.327,1.207,1.207,0,0,1,.241.58,8.761,8.761,0,0,1,.059,1.146,5.791,5.791,0,0,0,.076,1.1.851.851,0,0,0,.285.48A.882.882,0,0,0,63.964,81.061Z"/></g><path d="M93.775,5.946V57.72H162.81V31.394L137.366,5.946Z" style="fill:#d4e2da;stroke:#dfdfdf"/><g style="isolation:isolate"><path d="M97.474,48.77V39.743h1.007v.848a2.474,2.474,0,0,1,.805-.746,2.212,2.212,0,0,1,1.088-.249,2.58,2.58,0,0,1,1.475.43,2.64,2.64,0,0,1,.964,1.213,4.437,4.437,0,0,1,.326,1.718,4.352,4.352,0,0,1-.36,1.8,2.731,2.731,0,0,1-2.485,1.656,2.084,2.084,0,0,1-.992-.233,2.267,2.267,0,0,1-.722-.59V48.77Zm1-5.728a2.838,2.838,0,0,0,.51,1.862,1.564,1.564,0,0,0,1.235.6,1.6,1.6,0,0,0,1.263-.624,2.96,2.96,0,0,0,.525-1.932,2.883,2.883,0,0,0-.513-1.868,1.543,1.543,0,0,0-1.226-.621,1.59,1.59,0,0,0-1.25.661A2.95,2.95,0,0,0,98.475,43.042Z" style="fill:#758295"/><path d="M108.73,45.464a4.117,4.117,0,0,1-1.183.737,3.423,3.423,0,0,1-1.219.215,2.373,2.373,0,0,1-1.653-.525,1.735,1.735,0,0,1-.578-1.343,1.814,1.814,0,0,1,.79-1.511,2.69,2.69,0,0,1,.8-.363,8.046,8.046,0,0,1,.983-.166,10.1,10.1,0,0,0,1.972-.381c0-.151.006-.248.006-.289a1.22,1.22,0,0,0-.313-.952,1.852,1.852,0,0,0-1.26-.375,1.956,1.956,0,0,0-1.152.274,1.671,1.671,0,0,0-.55.967l-1.081-.147a2.683,2.683,0,0,1,.485-1.122,2.132,2.132,0,0,1,.977-.657,4.35,4.35,0,0,1,1.481-.23,3.923,3.923,0,0,1,1.358.2,1.788,1.788,0,0,1,.768.495,1.741,1.741,0,0,1,.344.753,6.215,6.215,0,0,1,.055,1.02v1.474a15.648,15.648,0,0,0,.071,1.951,2.463,2.463,0,0,0,.279.784h-1.155A2.372,2.372,0,0,1,108.73,45.464Zm-.092-2.47a8.146,8.146,0,0,1-1.806.417,4.183,4.183,0,0,0-.965.222.967.967,0,0,0-.255,1.622,1.444,1.444,0,0,0,.98.295,2.276,2.276,0,0,0,1.137-.28,1.723,1.723,0,0,0,.731-.765,2.667,2.667,0,0,0,.178-1.106Z" style="fill:#758295"/><path d="M111.268,46.809l1.075.16a1.024,1.024,0,0,0,.375.725,1.838,1.838,0,0,0,1.124.307,1.973,1.973,0,0,0,1.186-.307,1.513,1.513,0,0,0,.566-.86,7.129,7.129,0,0,0,.079-1.419,2.274,2.274,0,0,1-1.806.854,2.463,2.463,0,0,1-2.083-.971,3.736,3.736,0,0,1-.737-2.329,4.317,4.317,0,0,1,.338-1.723,2.7,2.7,0,0,1,.98-1.22,2.639,2.639,0,0,1,1.508-.43,2.339,2.339,0,0,1,1.905.934v-.787h1.02v5.641a5.362,5.362,0,0,1-.31,2.159,2.272,2.272,0,0,1-.984,1.005,3.4,3.4,0,0,1-1.655.369,3.124,3.124,0,0,1-1.887-.525A1.777,1.777,0,0,1,111.268,46.809Zm.916-3.92a2.836,2.836,0,0,0,.509,1.874,1.62,1.62,0,0,0,1.278.59,1.639,1.639,0,0,0,1.279-.587,2.738,2.738,0,0,0,.516-1.84,2.675,2.675,0,0,0-.532-1.806,1.642,1.642,0,0,0-1.281-.609,1.594,1.594,0,0,0-1.253.6A2.658,2.658,0,0,0,112.184,42.889Z" style="fill:#758295"/><path d="M122.936,44.167l1.143.142a2.791,2.791,0,0,1-1,1.554,3.019,3.019,0,0,1-1.869.553,2.986,2.986,0,0,1-2.27-.882,3.445,3.445,0,0,1-.838-2.473,3.606,3.606,0,0,1,.847-2.556,2.873,2.873,0,0,1,2.2-.909,2.792,2.792,0,0,1,2.139.891,3.543,3.543,0,0,1,.829,2.507c0,.065,0,.163-.006.3h-4.867a2.506,2.506,0,0,0,.609,1.646,1.81,1.81,0,0,0,1.364.572,1.693,1.693,0,0,0,1.038-.32A2.119,2.119,0,0,0,122.936,44.167Zm-3.631-1.788h3.643a2.211,2.211,0,0,0-.417-1.235,1.7,1.7,0,0,0-1.37-.639,1.759,1.759,0,0,0-1.282.51A2.02,2.02,0,0,0,119.305,42.379Z" style="fill:#758295"/><path d="M125.781,46.269v-1.26h1.26v1.26Z" style="fill:#758295"/><path d="M128.964,46.269V37.261h1.106v3.232a2.47,2.47,0,0,1,1.954-.9,2.638,2.638,0,0,1,1.259.285,1.675,1.675,0,0,1,.765.79,3.63,3.63,0,0,1,.231,1.462v4.136h-1.106V42.133a1.706,1.706,0,0,0-.36-1.207,1.335,1.335,0,0,0-1.017-.378,1.793,1.793,0,0,0-.924.255,1.444,1.444,0,0,0-.618.691,3.178,3.178,0,0,0-.184,1.2v3.57Z" style="fill:#758295"/><path d="M138.377,45.279l.16.977a4.067,4.067,0,0,1-.836.1,1.893,1.893,0,0,1-.934-.19,1.067,1.067,0,0,1-.467-.5,3.962,3.962,0,0,1-.135-1.306V40.6h-.811v-.861h.811V38.127l1.1-.664v2.28h1.112V40.6h-1.112v3.815a1.923,1.923,0,0,0,.058.608.457.457,0,0,0,.191.215.728.728,0,0,0,.378.08A3.542,3.542,0,0,0,138.377,45.279Z" style="fill:#758295"/><path d="M139.459,46.269V39.743h.989v.916a2.3,2.3,0,0,1,1.979-1.063,2.147,2.147,0,0,1,1.189.3,1.613,1.613,0,0,1,.654.841,2.344,2.344,0,0,1,2.016-1.142,1.985,1.985,0,0,1,1.492.537,2.3,2.3,0,0,1,.523,1.656v4.48h-1.1V42.158a3.006,3.006,0,0,0-.108-.955.925.925,0,0,0-.39-.471,1.224,1.224,0,0,0-.663-.178,1.545,1.545,0,0,0-1.143.458,2.018,2.018,0,0,0-.455,1.466v3.791h-1.106v-4.24a1.865,1.865,0,0,0-.27-1.106,1.025,1.025,0,0,0-.885-.369,1.611,1.611,0,0,0-.864.246,1.4,1.4,0,0,0-.574.719,4.04,4.04,0,0,0-.178,1.364v3.386Z" style="fill:#758295"/><path d="M149.917,46.269V37.261h1.106v9.008Z" style="fill:#758295"/></g><path d="M162.81,31.394,137.366,5.946V31.394Z" style="fill:#bfd2c7;stroke:#dfdfdf"/><g style="isolation:isolate"><g style="isolation:isolate"><path d="M114.757,129v-.743l4.3-1.814v.792l-3.407,1.4,3.407,1.411v.792Z" style="fill:#fff"/><path d="M120.884,131.839h-.738v-6.485h.8v2.313a1.574,1.574,0,0,1,1.287-.633,1.981,1.981,0,0,1,.821.175,1.665,1.665,0,0,1,.637.491,2.379,2.379,0,0,1,.392.763,3.167,3.167,0,0,1,.141.956,2.684,2.684,0,0,1-.6,1.867,1.866,1.866,0,0,1-1.434.659,1.5,1.5,0,0,1-1.3-.695Zm-.009-2.385a2.446,2.446,0,0,0,.23,1.222,1.139,1.139,0,0,0,1.92.161,2.061,2.061,0,0,0,.381-1.352,2.1,2.1,0,0,0-.365-1.358,1.111,1.111,0,0,0-.882-.438,1.145,1.145,0,0,0-.9.454A1.986,1.986,0,0,0,120.875,129.454Z" style="fill:#fff"/><path d="M124.893,129.489a2.419,2.419,0,0,1,.725-1.932,2.183,2.183,0,0,1,1.478-.523,2.109,2.109,0,0,1,1.584.635,2.421,2.421,0,0,1,.614,1.755,3.1,3.1,0,0,1-.272,1.427,1.923,1.923,0,0,1-.792.806,2.288,2.288,0,0,1-1.134.288,2.11,2.11,0,0,1-1.595-.633A2.523,2.523,0,0,1,124.893,129.489Zm.818,0a2,2,0,0,0,.394,1.352,1.312,1.312,0,0,0,1.978,0,2.051,2.051,0,0,0,.393-1.376,1.939,1.939,0,0,0-.4-1.32,1.31,1.31,0,0,0-1.975,0A1.985,1.985,0,0,0,125.711,129.489Z" style="fill:#fff"/><path d="M133.276,131.839v-.593a1.459,1.459,0,0,1-1.314.7,1.849,1.849,0,0,1-1.033-.309,2.045,2.045,0,0,1-.73-.865,3,3,0,0,1-.259-1.277,3.345,3.345,0,0,1,.235-1.276,1.853,1.853,0,0,1,.7-.878,1.881,1.881,0,0,1,1.049-.306,1.567,1.567,0,0,1,1.3.647v-2.327h.792v6.485Zm-2.517-2.345a2.04,2.04,0,0,0,.381,1.35,1.144,1.144,0,0,0,.9.446,1.123,1.123,0,0,0,.886-.427,1.961,1.961,0,0,0,.366-1.3,2.207,2.207,0,0,0-.372-1.416,1.144,1.144,0,0,0-.916-.452,1.1,1.1,0,0,0-.887.434A2.137,2.137,0,0,0,130.759,129.494Z" style="fill:#fff"/><path d="M135.232,133.648l-.089-.748a1.748,1.748,0,0,0,.456.072.87.87,0,0,0,.424-.089.723.723,0,0,0,.262-.248,3.88,3.88,0,0,0,.243-.593c.015-.044.038-.108.071-.194l-1.783-4.707h.858l.978,2.72q.191.517.341,1.088a10.678,10.678,0,0,1,.327-1.07l1-2.738h.8l-1.788,4.778a9.007,9.007,0,0,1-.447,1.065,1.568,1.568,0,0,1-.486.578,1.145,1.145,0,0,1-.655.184A1.591,1.591,0,0,1,135.232,133.648Z" style="fill:#fff"/><path d="M143.991,129l-4.3,1.836v-.792l3.4-1.411-3.4-1.4v-.792l4.3,1.814Z" style="fill:#fff"/></g><g style="isolation:isolate"><path d="M114.757,140.328v-.743l4.3-1.814v.792l-3.407,1.4,3.407,1.411v.792Z" style="fill:#fff"/><path d="M120.132,143.164v-6.485h.8v6.485Z" style="fill:#fff"/><path d="M122.167,137.594v-.915h.8v.915Zm0,5.57v-4.7h.8v4.7Z" style="fill:#fff"/><path d="M128.37,140.328l-4.3,1.836v-.792l3.4-1.411-3.4-1.4v-.792l4.3,1.814Z" style="fill:#fff"/><path d="M129.365,140.328v-.743l4.3-1.814v.792l-3.407,1.4,3.407,1.411v.792Z" style="fill:#fff"/><path d="M137.824,142.585a2.967,2.967,0,0,1-.851.53,2.448,2.448,0,0,1-.879.156,1.706,1.706,0,0,1-1.19-.379,1.25,1.25,0,0,1-.416-.966,1.315,1.315,0,0,1,.569-1.089,1.933,1.933,0,0,1,.573-.261,5.677,5.677,0,0,1,.708-.119,7.416,7.416,0,0,0,1.42-.274c0-.11,0-.179,0-.208a.879.879,0,0,0-.225-.686,1.328,1.328,0,0,0-.907-.27,1.4,1.4,0,0,0-.83.2,1.205,1.205,0,0,0-.4.7l-.779-.105a1.934,1.934,0,0,1,.35-.808,1.535,1.535,0,0,1,.7-.474,3.148,3.148,0,0,1,1.066-.166,2.833,2.833,0,0,1,.978.142,1.288,1.288,0,0,1,.552.356,1.24,1.24,0,0,1,.248.542,4.428,4.428,0,0,1,.04.735V141.2a11.24,11.24,0,0,0,.051,1.405,1.782,1.782,0,0,0,.2.564h-.832A1.708,1.708,0,0,1,137.824,142.585Zm-.066-1.779a5.82,5.82,0,0,1-1.3.3,2.967,2.967,0,0,0-.694.161.7.7,0,0,0-.184,1.168,1.046,1.046,0,0,0,.706.211,1.645,1.645,0,0,0,.818-.2,1.235,1.235,0,0,0,.526-.55,1.918,1.918,0,0,0,.129-.8Z" style="fill:#fff"/><path d="M142,141.762l.788-.124a1.1,1.1,0,0,0,.369.725,1.287,1.287,0,0,0,.847.252,1.244,1.244,0,0,0,.814-.223.669.669,0,0,0,.266-.524.486.486,0,0,0-.235-.425,3.424,3.424,0,0,0-.814-.27,7.535,7.535,0,0,1-1.214-.382,1.161,1.161,0,0,1-.688-1.078,1.216,1.216,0,0,1,.143-.581,1.29,1.29,0,0,1,.392-.445,1.673,1.673,0,0,1,.506-.232,2.429,2.429,0,0,1,.688-.1,2.728,2.728,0,0,1,.972.16,1.326,1.326,0,0,1,.617.431,1.683,1.683,0,0,1,.274.728l-.779.106a.848.848,0,0,0-.307-.566,1.123,1.123,0,0,0-.719-.2,1.308,1.308,0,0,0-.783.18.53.53,0,0,0-.235.425.44.44,0,0,0,.1.279.7.7,0,0,0,.3.212q.12.045.7.2a9.857,9.857,0,0,1,1.18.37,1.193,1.193,0,0,1,.524.418,1.171,1.171,0,0,1,.19.681,1.333,1.333,0,0,1-.232.749,1.5,1.5,0,0,1-.67.545,2.449,2.449,0,0,1-.992.193,2.2,2.2,0,0,1-1.395-.381A1.769,1.769,0,0,1,142,141.762Z" style="fill:#fff"/><path d="M148.583,142.452l.115.7a2.961,2.961,0,0,1-.6.071,1.358,1.358,0,0,1-.673-.137.775.775,0,0,1-.336-.36,2.861,2.861,0,0,1-.1-.941v-2.7h-.584v-.619h.584V137.3l.792-.478v1.642h.8v.619h-.8v2.747a1.393,1.393,0,0,0,.042.439.329.329,0,0,0,.137.154.522.522,0,0,0,.272.057A2.5,2.5,0,0,0,148.583,142.452Z" style="fill:#fff"/><path d="M149.327,144.974l-.089-.748a1.785,1.785,0,0,0,.456.071.859.859,0,0,0,.424-.089.713.713,0,0,0,.261-.248,3.7,3.7,0,0,0,.244-.593c.015-.044.038-.108.07-.194l-1.782-4.707h.858l.977,2.721c.127.344.241.708.341,1.087a10.95,10.95,0,0,1,.328-1.07l1-2.738h.8l-1.787,4.778a9.492,9.492,0,0,1-.447,1.066,1.569,1.569,0,0,1-.487.578,1.147,1.147,0,0,1-.654.183A1.615,1.615,0,0,1,149.327,144.974Z" style="fill:#fff"/><path d="M153.874,143.164v-6.485h.8v6.485Z" style="fill:#fff"/><path d="M159.121,141.651l.823.1a2.012,2.012,0,0,1-.721,1.119,2.441,2.441,0,0,1-2.98-.236,2.487,2.487,0,0,1-.6-1.782,2.592,2.592,0,0,1,.61-1.839,2.066,2.066,0,0,1,1.584-.656,2.005,2.005,0,0,1,1.539.642,2.55,2.55,0,0,1,.6,1.805c0,.048,0,.118,0,.213h-3.5a1.811,1.811,0,0,0,.438,1.185,1.3,1.3,0,0,0,.983.411,1.217,1.217,0,0,0,.747-.229A1.53,1.53,0,0,0,159.121,141.651Zm-2.614-1.288h2.623a1.587,1.587,0,0,0-.3-.888,1.219,1.219,0,0,0-.986-.46,1.265,1.265,0,0,0-.923.367A1.449,1.449,0,0,0,156.507,140.363Z" style="fill:#fff"/><path d="M165.134,139.351h-4.283v-.744h4.283Zm0,1.968h-4.283v-.743h4.283Z" style="fill:#fff"/><path d="M166.274,138.975l-.22-1.235v-1.061h.907v1.061l-.2,1.235Zm1.465,0-.217-1.235v-1.061h.908v1.061l-.213,1.235Z" style="fill:#fff"/><path d="M172.518,141.443l.783.1a2.033,2.033,0,0,1-.657,1.267,1.918,1.918,0,0,1-1.3.459,2.015,2.015,0,0,1-1.551-.631,2.552,2.552,0,0,1-.587-1.807,3.257,3.257,0,0,1,.253-1.332,1.753,1.753,0,0,1,.768-.856,2.272,2.272,0,0,1,1.121-.286,1.948,1.948,0,0,1,1.252.388,1.778,1.778,0,0,1,.624,1.1l-.775.12a1.282,1.282,0,0,0-.391-.713,1.016,1.016,0,0,0-.679-.238,1.235,1.235,0,0,0-.978.43,2.049,2.049,0,0,0-.376,1.366,2.114,2.114,0,0,0,.363,1.376,1.179,1.179,0,0,0,.946.428,1.113,1.113,0,0,0,.783-.287A1.423,1.423,0,0,0,172.518,141.443Z" style="fill:#fff"/><path d="M173.686,140.814a2.423,2.423,0,0,1,.725-1.932,2.183,2.183,0,0,1,1.478-.523,2.111,2.111,0,0,1,1.584.635,2.417,2.417,0,0,1,.615,1.755,3.1,3.1,0,0,1-.273,1.427,1.923,1.923,0,0,1-.792.806,2.288,2.288,0,0,1-1.134.289,2.11,2.11,0,0,1-1.595-.633A2.532,2.532,0,0,1,173.686,140.814Zm.818,0a2,2,0,0,0,.393,1.352,1.312,1.312,0,0,0,1.978,0,2.045,2.045,0,0,0,.4-1.376,1.941,1.941,0,0,0-.4-1.32,1.313,1.313,0,0,0-1.976,0A1.992,1.992,0,0,0,174.5,140.814Z" style="fill:#fff"/><path d="M179,143.164v-6.485h.8v6.485Z" style="fill:#fff"/><path d="M180.737,140.814a2.42,2.42,0,0,1,.726-1.932,2.18,2.18,0,0,1,1.477-.523,2.108,2.108,0,0,1,1.584.635,2.413,2.413,0,0,1,.616,1.755,3.1,3.1,0,0,1-.273,1.427,1.923,1.923,0,0,1-.792.806,2.29,2.29,0,0,1-1.135.289,2.11,2.11,0,0,1-1.594-.633A2.528,2.528,0,0,1,180.737,140.814Zm.819,0a2,2,0,0,0,.393,1.352,1.312,1.312,0,0,0,1.978,0,2.051,2.051,0,0,0,.394-1.376,1.946,1.946,0,0,0-.4-1.32,1.313,1.313,0,0,0-1.976,0A1.992,1.992,0,0,0,181.556,140.814Z" style="fill:#fff"/><path d="M186.064,143.164v-4.7h.716v.712a1.969,1.969,0,0,1,.507-.659.886.886,0,0,1,.511-.16,1.551,1.551,0,0,1,.818.257l-.273.738a1.153,1.153,0,0,0-.584-.171.752.752,0,0,0-.47.157.846.846,0,0,0-.3.435,3.09,3.09,0,0,0-.133.929v2.46Z" style="fill:#fff"/><path d="M189.311,139.373v-.907h.907v.907Zm0,3.791v-.907h.907v.907Z" style="fill:#fff"/><path d="M193.983,143.274l.385-1.884h-.748v-.66h.881l.327-1.6H193.62v-.659h1.341l.385-1.9h.663l-.385,1.9h1.394l.384-1.9h.669l-.385,1.9h.765v.659h-.9l-.331,1.6h1.229v.66h-1.362l-.385,1.884h-.664l.381-1.884h-1.39l-.385,1.884Zm1.181-2.544h1.39l.331-1.6h-1.394Z" style="fill:#fff"/><path d="M202.229,142.585a2.984,2.984,0,0,1-.852.53,2.443,2.443,0,0,1-.878.156,1.7,1.7,0,0,1-1.19-.379,1.246,1.246,0,0,1-.416-.966,1.311,1.311,0,0,1,.568-1.089,1.945,1.945,0,0,1,.573-.261,5.711,5.711,0,0,1,.708-.119,7.4,7.4,0,0,0,1.42-.274c0-.11,0-.179,0-.208a.876.876,0,0,0-.226-.686,1.327,1.327,0,0,0-.907-.27,1.4,1.4,0,0,0-.83.2,1.2,1.2,0,0,0-.4.7l-.779-.105a1.921,1.921,0,0,1,.35-.808,1.532,1.532,0,0,1,.7-.474,3.152,3.152,0,0,1,1.066-.166,2.833,2.833,0,0,1,.978.142,1.3,1.3,0,0,1,.553.356,1.263,1.263,0,0,1,.248.542,4.544,4.544,0,0,1,.04.735V141.2a11.036,11.036,0,0,0,.051,1.405,1.734,1.734,0,0,0,.2.564h-.832A1.685,1.685,0,0,1,202.229,142.585Zm-.067-1.779a5.82,5.82,0,0,1-1.3.3,2.981,2.981,0,0,0-.694.161.7.7,0,0,0-.184,1.168,1.047,1.047,0,0,0,.7.211,1.647,1.647,0,0,0,.82-.2,1.245,1.245,0,0,0,.526-.55,1.937,1.937,0,0,0,.128-.8Z" style="fill:#fff"/><path d="M207.268,141.443l.783.1a2.033,2.033,0,0,1-.657,1.267,1.918,1.918,0,0,1-1.3.459,2.015,2.015,0,0,1-1.551-.631,2.552,2.552,0,0,1-.587-1.807,3.257,3.257,0,0,1,.253-1.332,1.753,1.753,0,0,1,.768-.856,2.272,2.272,0,0,1,1.121-.286,1.948,1.948,0,0,1,1.252.388,1.778,1.778,0,0,1,.624,1.1l-.775.12a1.282,1.282,0,0,0-.391-.713,1.016,1.016,0,0,0-.679-.238,1.235,1.235,0,0,0-.978.43,2.049,2.049,0,0,0-.376,1.366,2.114,2.114,0,0,0,.363,1.376,1.179,1.179,0,0,0,.946.428,1.113,1.113,0,0,0,.783-.287A1.423,1.423,0,0,0,207.268,141.443Z" style="fill:#fff"/><path d="M211.8,141.443l.783.1a2.033,2.033,0,0,1-.657,1.267,1.916,1.916,0,0,1-1.3.459,2.015,2.015,0,0,1-1.551-.631,2.557,2.557,0,0,1-.587-1.807,3.257,3.257,0,0,1,.253-1.332,1.753,1.753,0,0,1,.768-.856,2.277,2.277,0,0,1,1.121-.286,1.944,1.944,0,0,1,1.252.388,1.778,1.778,0,0,1,.624,1.1l-.775.12a1.282,1.282,0,0,0-.391-.713,1.014,1.014,0,0,0-.679-.238,1.234,1.234,0,0,0-.977.43,2.049,2.049,0,0,0-.376,1.366,2.12,2.12,0,0,0,.362,1.376,1.18,1.18,0,0,0,.946.428,1.111,1.111,0,0,0,.783-.287A1.423,1.423,0,0,0,211.8,141.443Z" style="fill:#fff"/><path d="M213.3,138.975l-.221-1.235v-1.061h.907v1.061l-.2,1.235Zm1.465,0-.217-1.235v-1.061h.907v1.061l-.213,1.235Z" style="fill:#fff"/><path d="M220.673,140.328l-4.3,1.836v-.792l3.4-1.411-3.4-1.4v-.792l4.3,1.814Z" style="fill:#fff"/><path d="M221.668,140.328v-.743l4.3-1.814v.792l-3.406,1.4,3.406,1.411v.792Z" style="fill:#fff"/><path d="M226.464,143.274l1.88-6.707h.637l-1.876,6.707Z" style="fill:#fff"/><path d="M232.644,142.585a2.984,2.984,0,0,1-.852.53,2.439,2.439,0,0,1-.878.156,1.7,1.7,0,0,1-1.19-.379,1.246,1.246,0,0,1-.416-.966,1.311,1.311,0,0,1,.568-1.089,1.945,1.945,0,0,1,.573-.261,5.711,5.711,0,0,1,.708-.119,7.4,7.4,0,0,0,1.42-.274c0-.11,0-.179,0-.208a.876.876,0,0,0-.226-.686,1.327,1.327,0,0,0-.907-.27,1.4,1.4,0,0,0-.83.2,1.2,1.2,0,0,0-.4.7l-.779-.105a1.921,1.921,0,0,1,.35-.808,1.532,1.532,0,0,1,.7-.474,3.152,3.152,0,0,1,1.066-.166,2.833,2.833,0,0,1,.978.142,1.3,1.3,0,0,1,.553.356,1.263,1.263,0,0,1,.248.542,4.544,4.544,0,0,1,.04.735V141.2a11.036,11.036,0,0,0,.051,1.405,1.734,1.734,0,0,0,.2.564H232.8A1.685,1.685,0,0,1,232.644,142.585Zm-.067-1.779a5.82,5.82,0,0,1-1.3.3,2.981,2.981,0,0,0-.694.161.7.7,0,0,0-.184,1.168,1.048,1.048,0,0,0,.706.211,1.646,1.646,0,0,0,.819-.2,1.245,1.245,0,0,0,.526-.55,1.937,1.937,0,0,0,.128-.8Z" style="fill:#fff"/><path d="M238.811,140.328l-4.3,1.836v-.792l3.4-1.411-3.4-1.4v-.792l4.3,1.814Z" style="fill:#fff"/><path d="M239.807,140.328v-.743l4.3-1.814v.792l-3.407,1.4,3.407,1.411v.792Z" style="fill:#fff"/><path d="M244.6,143.274l1.879-6.707h.638l-1.876,6.707Z" style="fill:#fff"/><path d="M247.7,143.164v-6.485h.8v6.485Z" style="fill:#fff"/><path d="M249.734,137.594v-.915h.8v.915Zm0,5.57v-4.7h.8v4.7Z" style="fill:#fff"/><path d="M255.937,140.328l-4.3,1.836v-.792l3.4-1.411-3.4-1.4v-.792l4.3,1.814Z" style="fill:#fff"/></g><g style="isolation:isolate"><path d="M114.757,151.906v-.743l4.3-1.813v.792l-3.407,1.4,3.407,1.411v.792Z" style="fill:#fff"/><path d="M119.553,154.853l1.88-6.707h.637l-1.876,6.707Z" style="fill:#fff"/><path d="M123.4,154.742h-.739v-6.485h.8v2.313a1.577,1.577,0,0,1,1.288-.632,1.972,1.972,0,0,1,.82.174,1.681,1.681,0,0,1,.638.492,2.382,2.382,0,0,1,.391.762,3.167,3.167,0,0,1,.142.956,2.684,2.684,0,0,1-.6,1.867,1.869,1.869,0,0,1-1.434.66,1.494,1.494,0,0,1-1.3-.7Zm-.009-2.385a2.446,2.446,0,0,0,.23,1.222,1.139,1.139,0,0,0,1.92.161,2.058,2.058,0,0,0,.381-1.351,2.1,2.1,0,0,0-.365-1.359,1.112,1.112,0,0,0-.883-.437,1.144,1.144,0,0,0-.9.453A1.994,1.994,0,0,0,123.393,152.357Z" style="fill:#fff"/><path d="M127.41,152.393a2.42,2.42,0,0,1,.725-1.933,2.182,2.182,0,0,1,1.478-.522,2.109,2.109,0,0,1,1.584.634,2.421,2.421,0,0,1,.615,1.755,3.115,3.115,0,0,1-.272,1.427,1.937,1.937,0,0,1-.792.807,2.3,2.3,0,0,1-1.135.288,2.11,2.11,0,0,1-1.595-.633A2.525,2.525,0,0,1,127.41,152.393Zm.818,0a2,2,0,0,0,.394,1.351,1.312,1.312,0,0,0,1.978,0,2.051,2.051,0,0,0,.393-1.376,1.941,1.941,0,0,0-.4-1.32,1.312,1.312,0,0,0-1.975,0A1.988,1.988,0,0,0,128.228,152.393Z" style="fill:#fff"/><path d="M135.793,154.742v-.593a1.46,1.46,0,0,1-1.314.7,1.85,1.85,0,0,1-1.033-.31,2.045,2.045,0,0,1-.73-.865,3,3,0,0,1-.258-1.277,3.349,3.349,0,0,1,.234-1.276,1.849,1.849,0,0,1,.7-.878,1.874,1.874,0,0,1,1.048-.305,1.563,1.563,0,0,1,1.3.646v-2.327h.792v6.485Zm-2.517-2.345a2.04,2.04,0,0,0,.381,1.35,1.144,1.144,0,0,0,.9.446,1.122,1.122,0,0,0,.886-.426,1.965,1.965,0,0,0,.366-1.3,2.209,2.209,0,0,0-.372-1.416,1.143,1.143,0,0,0-.916-.451,1.1,1.1,0,0,0-.887.433A2.143,2.143,0,0,0,133.276,152.4Z" style="fill:#fff"/><path d="M137.749,156.552l-.089-.748a1.742,1.742,0,0,0,.456.071.863.863,0,0,0,.425-.089.712.712,0,0,0,.261-.248,3.833,3.833,0,0,0,.243-.593c.015-.044.038-.108.071-.194l-1.783-4.707h.858l.978,2.721c.127.344.24.708.341,1.088a10.617,10.617,0,0,1,.327-1.071l1-2.738h.8l-1.788,4.778a9.12,9.12,0,0,1-.447,1.066,1.577,1.577,0,0,1-.486.578,1.153,1.153,0,0,1-.655.183A1.62,1.62,0,0,1,137.749,156.552Z" style="fill:#fff"/><path d="M146.508,151.906l-4.3,1.836v-.792l3.4-1.411-3.4-1.4v-.792l4.3,1.813Z" style="fill:#fff"/></g></g><circle cx="103.691" cy="53.567" r="3.081" style="fill:#ff7f2a;stroke:#dfdfdf"/><circle cx="112.248" cy="127.208" r="3.081" style="fill:#ff7f2a;stroke:#dfdfdf"/><path d="M103.691,53.164v74.12h9.036" style="fill:none;stroke:#ff7f2a;stroke-width:6px"/><rect x="94.052" y="71.914" width="113.029" height="42.936" style="fill:#d4e2da"/><g style="isolation:isolate"><g style="isolation:isolate"><path d="M96.133,83.953V83.21l4.3-1.814v.792l-3.407,1.4L100.429,85v.792Z"/><path d="M101.208,85.387l.787-.124a1.1,1.1,0,0,0,.369.725,1.289,1.289,0,0,0,.847.252,1.242,1.242,0,0,0,.814-.223.666.666,0,0,0,.266-.524.484.484,0,0,0-.234-.425,3.46,3.46,0,0,0-.814-.27,7.591,7.591,0,0,1-1.215-.382,1.161,1.161,0,0,1-.688-1.078,1.206,1.206,0,0,1,.144-.581,1.287,1.287,0,0,1,.391-.445,1.68,1.68,0,0,1,.507-.232,2.423,2.423,0,0,1,.688-.1,2.726,2.726,0,0,1,.971.16,1.321,1.321,0,0,1,.617.431,1.7,1.7,0,0,1,.275.728l-.779.106a.849.849,0,0,0-.308-.566,1.121,1.121,0,0,0-.719-.2,1.31,1.31,0,0,0-.783.18.529.529,0,0,0-.234.425.444.444,0,0,0,.1.279.7.7,0,0,0,.306.212c.079.03.314.1.7.2a9.887,9.887,0,0,1,1.179.37,1.188,1.188,0,0,1,.524.418,1.163,1.163,0,0,1,.19.681,1.333,1.333,0,0,1-.232.749,1.5,1.5,0,0,1-.67.545,2.447,2.447,0,0,1-.991.193,2.205,2.205,0,0,1-1.4-.381A1.768,1.768,0,0,1,101.208,85.387Z"/><path d="M107.8,86.077l.115.7a2.97,2.97,0,0,1-.6.071,1.353,1.353,0,0,1-.672-.137.777.777,0,0,1-.337-.36,2.89,2.89,0,0,1-.1-.941v-2.7h-.584v-.619h.584V80.927l.792-.478v1.642h.8v.619h-.8v2.747a1.393,1.393,0,0,0,.042.439.334.334,0,0,0,.137.154.525.525,0,0,0,.272.057A2.513,2.513,0,0,0,107.8,86.077Z"/><path d="M108.538,88.6l-.089-.748a1.791,1.791,0,0,0,.456.071.863.863,0,0,0,.425-.089.728.728,0,0,0,.261-.248,3.833,3.833,0,0,0,.243-.593c.015-.044.039-.108.071-.194l-1.783-4.707h.858l.978,2.721c.127.344.24.708.341,1.087a10.678,10.678,0,0,1,.327-1.07l1-2.738h.8l-1.788,4.778a9.12,9.12,0,0,1-.447,1.066,1.577,1.577,0,0,1-.486.578,1.153,1.153,0,0,1-.655.183A1.62,1.62,0,0,1,108.538,88.6Z"/><path d="M113.086,86.789V80.3h.8v6.486Z"/><path d="M118.333,85.276l.823.1a2.012,2.012,0,0,1-.721,1.119,2.441,2.441,0,0,1-2.98-.236,2.487,2.487,0,0,1-.6-1.782,2.592,2.592,0,0,1,.61-1.839,2.065,2.065,0,0,1,1.583-.656,2.007,2.007,0,0,1,1.54.642,2.55,2.55,0,0,1,.6,1.8c0,.048,0,.118-.005.213h-3.5a1.811,1.811,0,0,0,.438,1.185,1.3,1.3,0,0,0,.982.411,1.222,1.222,0,0,0,.748-.229A1.537,1.537,0,0,0,118.333,85.276Zm-2.615-1.288h2.624a1.587,1.587,0,0,0-.3-.888,1.219,1.219,0,0,0-.986-.46,1.265,1.265,0,0,0-.923.367A1.454,1.454,0,0,0,115.718,83.988Z"/><path d="M124.35,83.953l-4.3,1.836V85l3.4-1.411-3.4-1.4V81.4l4.3,1.814Z"/></g><g style="isolation:isolate"><path d="M96.217,98.365V91.88h.8v6.485Z"/><path d="M98.252,92.8V91.88h.8V92.8Zm0,5.57v-4.7h.8v4.7Z"/><path d="M105.844,97.786a2.971,2.971,0,0,1-.852.53,2.443,2.443,0,0,1-.878.156,1.7,1.7,0,0,1-1.19-.379,1.245,1.245,0,0,1-.416-.966,1.309,1.309,0,0,1,.569-1.089,1.928,1.928,0,0,1,.572-.261,5.745,5.745,0,0,1,.708-.119,7.383,7.383,0,0,0,1.42-.274c0-.11,0-.179,0-.208a.877.877,0,0,0-.226-.686,1.332,1.332,0,0,0-.907-.27,1.4,1.4,0,0,0-.829.2,1.2,1.2,0,0,0-.4.7l-.779-.105A1.934,1.934,0,0,1,103,94.2a1.523,1.523,0,0,1,.7-.473,3.128,3.128,0,0,1,1.066-.166,2.832,2.832,0,0,1,.978.141,1.284,1.284,0,0,1,.553.357,1.241,1.241,0,0,1,.248.542,4.521,4.521,0,0,1,.04.734V96.4a11.536,11.536,0,0,0,.05,1.405,1.751,1.751,0,0,0,.2.564H106A1.663,1.663,0,0,1,105.844,97.786Zm-.067-1.779a5.8,5.8,0,0,1-1.3.3,2.939,2.939,0,0,0-.7.16.7.7,0,0,0-.183,1.168,1.044,1.044,0,0,0,.7.212,1.646,1.646,0,0,0,.819-.2,1.245,1.245,0,0,0,.526-.55,1.937,1.937,0,0,0,.128-.8Z"/><path d="M109.989,95.658a.892.892,0,0,0,.555-.183.857.857,0,0,0,.286-.481,5.515,5.515,0,0,0,.075-1.044c0-.492.012-.817.026-.973a1.84,1.84,0,0,1,.149-.6.981.981,0,0,1,.674-.567,2.43,2.43,0,0,1,.549-.044h.247v.695h-.136a.825.825,0,0,0-.611.166,1.2,1.2,0,0,0-.151.74,12.942,12.942,0,0,1-.048,1.465,1.673,1.673,0,0,1-.272.729,1.613,1.613,0,0,1-.6.457,1.347,1.347,0,0,1,.706.621,3.144,3.144,0,0,1,.218,1.37q0,.863.018,1.026a.624.624,0,0,0,.179.42.935.935,0,0,0,.565.119h.136v.7H112.3a2.015,2.015,0,0,1-.629-.071,1.054,1.054,0,0,1-.468-.329,1.192,1.192,0,0,1-.242-.578,8.738,8.738,0,0,1-.059-1.146,5.938,5.938,0,0,0-.075-1.1.866.866,0,0,0-.286-.483.881.881,0,0,0-.555-.185Z"/><path d="M118.943,96.645l.784.1a2.034,2.034,0,0,1-.658,1.268,1.919,1.919,0,0,1-1.3.458,2.016,2.016,0,0,1-1.551-.631,2.561,2.561,0,0,1-.586-1.807,3.274,3.274,0,0,1,.252-1.332,1.763,1.763,0,0,1,.768-.856,2.279,2.279,0,0,1,1.121-.285,1.942,1.942,0,0,1,1.252.387,1.769,1.769,0,0,1,.624,1.1l-.774.12a1.287,1.287,0,0,0-.392-.713,1.012,1.012,0,0,0-.679-.238,1.234,1.234,0,0,0-.977.43,2.053,2.053,0,0,0-.376,1.366,2.122,2.122,0,0,0,.362,1.376,1.181,1.181,0,0,0,.947.428,1.113,1.113,0,0,0,.783-.287A1.428,1.428,0,0,0,118.943,96.645Z"/><path d="M120.111,96.016a2.421,2.421,0,0,1,.726-1.933,2.18,2.18,0,0,1,1.477-.522,2.109,2.109,0,0,1,1.584.634,2.417,2.417,0,0,1,.615,1.755,3.115,3.115,0,0,1-.272,1.427,1.925,1.925,0,0,1-.792.807,2.3,2.3,0,0,1-1.135.288,2.11,2.11,0,0,1-1.594-.633A2.525,2.525,0,0,1,120.111,96.016Zm.819,0a2,2,0,0,0,.394,1.351,1.311,1.311,0,0,0,1.977,0,2.051,2.051,0,0,0,.394-1.376,1.941,1.941,0,0,0-.4-1.32,1.312,1.312,0,0,0-1.975,0A1.988,1.988,0,0,0,120.93,96.016Z"/><path d="M125.429,98.365V91.88h.8v6.485Z"/><path d="M127.163,96.016a2.421,2.421,0,0,1,.726-1.933,2.178,2.178,0,0,1,1.477-.522,2.109,2.109,0,0,1,1.584.634,2.417,2.417,0,0,1,.615,1.755,3.115,3.115,0,0,1-.272,1.427,1.925,1.925,0,0,1-.792.807,2.3,2.3,0,0,1-1.135.288,2.112,2.112,0,0,1-1.6-.633A2.529,2.529,0,0,1,127.163,96.016Zm.818,0a2,2,0,0,0,.394,1.351,1.312,1.312,0,0,0,1.978,0,2.051,2.051,0,0,0,.394-1.376,1.941,1.941,0,0,0-.4-1.32,1.313,1.313,0,0,0-1.976,0A1.993,1.993,0,0,0,127.981,96.016Z"/><path d="M132.49,98.365v-4.7h.717v.712a1.931,1.931,0,0,1,.506-.659.885.885,0,0,1,.511-.159,1.552,1.552,0,0,1,.818.256l-.274.739a1.139,1.139,0,0,0-.584-.172.757.757,0,0,0-.469.157.855.855,0,0,0-.3.436,3.11,3.11,0,0,0-.133.928v2.46Z"/><path d="M135.737,94.574v-.907h.907v.907Zm0,3.791v-.907h.907v.907Z"/><path d="M140.254,96.016a2.423,2.423,0,0,1,.725-1.933,2.182,2.182,0,0,1,1.478-.522,2.109,2.109,0,0,1,1.584.634,2.417,2.417,0,0,1,.615,1.755,3.115,3.115,0,0,1-.272,1.427,1.931,1.931,0,0,1-.792.807,2.3,2.3,0,0,1-1.135.288,2.112,2.112,0,0,1-1.595-.633A2.529,2.529,0,0,1,140.254,96.016Zm.818,0a2,2,0,0,0,.394,1.351,1.312,1.312,0,0,0,1.978,0,2.051,2.051,0,0,0,.393-1.376,1.935,1.935,0,0,0-.4-1.32,1.312,1.312,0,0,0-1.975,0A1.993,1.993,0,0,0,141.072,96.016Z"/><path d="M145.581,98.365v-4.7h.716v.712a1.943,1.943,0,0,1,.507-.659.883.883,0,0,1,.511-.159,1.552,1.552,0,0,1,.818.256l-.274.739a1.139,1.139,0,0,0-.584-.172.757.757,0,0,0-.469.157.843.843,0,0,0-.3.436,3.079,3.079,0,0,0-.133.928v2.46Z"/><path d="M151.672,97.786a2.957,2.957,0,0,1-.852.53,2.431,2.431,0,0,1-.878.156,1.706,1.706,0,0,1-1.19-.379,1.248,1.248,0,0,1-.416-.966,1.315,1.315,0,0,1,.569-1.089,1.945,1.945,0,0,1,.573-.261,5.677,5.677,0,0,1,.708-.119,7.37,7.37,0,0,0,1.419-.274c0-.11.006-.179.006-.208a.881.881,0,0,0-.226-.686,1.331,1.331,0,0,0-.906-.27,1.406,1.406,0,0,0-.831.2,1.205,1.205,0,0,0-.4.7l-.778-.105a1.921,1.921,0,0,1,.349-.808,1.526,1.526,0,0,1,.7-.473,3.126,3.126,0,0,1,1.067-.166,2.824,2.824,0,0,1,.976.141,1.284,1.284,0,0,1,.553.357,1.23,1.23,0,0,1,.248.542,4.373,4.373,0,0,1,.041.734V96.4a11.036,11.036,0,0,0,.051,1.405,1.7,1.7,0,0,0,.2.564h-.832A1.685,1.685,0,0,1,151.672,97.786Zm-.067-1.779a5.8,5.8,0,0,1-1.3.3,2.94,2.94,0,0,0-.694.16.683.683,0,0,0-.425.636.684.684,0,0,0,.241.532,1.046,1.046,0,0,0,.706.212,1.642,1.642,0,0,0,.818-.2,1.261,1.261,0,0,0,.528-.55,1.976,1.976,0,0,0,.126-.8Z"/><path d="M153.646,98.365v-4.7h.715v.668a1.691,1.691,0,0,1,1.5-.774,1.957,1.957,0,0,1,.781.152,1.233,1.233,0,0,1,.533.4,1.559,1.559,0,0,1,.248.589,4.626,4.626,0,0,1,.044.775v2.888h-.8V95.507a2.148,2.148,0,0,0-.093-.728.763.763,0,0,0-.33-.384,1.048,1.048,0,0,0-.555-.144,1.286,1.286,0,0,0-.878.323,1.588,1.588,0,0,0-.37,1.225v2.566Z"/><path d="M158.538,98.755l.774.114a.746.746,0,0,0,.27.523,1.331,1.331,0,0,0,.81.221,1.426,1.426,0,0,0,.854-.221,1.088,1.088,0,0,0,.406-.62,5.008,5.008,0,0,0,.058-1.022,1.637,1.637,0,0,1-1.3.615,1.773,1.773,0,0,1-1.5-.7,2.69,2.69,0,0,1-.531-1.677,3.121,3.121,0,0,1,.243-1.24,1.953,1.953,0,0,1,.706-.879,1.907,1.907,0,0,1,1.086-.309,1.682,1.682,0,0,1,1.371.672v-.566h.735v4.062a3.843,3.843,0,0,1-.224,1.554,1.64,1.64,0,0,1-.707.724,2.456,2.456,0,0,1-1.193.265,2.249,2.249,0,0,1-1.358-.378A1.279,1.279,0,0,1,158.538,98.755Zm.659-2.823a2.035,2.035,0,0,0,.367,1.349,1.211,1.211,0,0,0,1.841,0,1.971,1.971,0,0,0,.371-1.324,1.928,1.928,0,0,0-.382-1.3,1.184,1.184,0,0,0-.922-.438,1.146,1.146,0,0,0-.9.431A1.914,1.914,0,0,0,159.2,95.932Z"/><path d="M166.939,96.853l.824.1a2,2,0,0,1-.722,1.119,2.44,2.44,0,0,1-2.979-.236,2.482,2.482,0,0,1-.6-1.781,2.6,2.6,0,0,1,.61-1.84,2.067,2.067,0,0,1,1.584-.655,2,2,0,0,1,1.539.641,2.545,2.545,0,0,1,.6,1.805c0,.048,0,.118,0,.213h-3.5a1.811,1.811,0,0,0,.439,1.185,1.3,1.3,0,0,0,.982.411,1.217,1.217,0,0,0,.747-.229A1.527,1.527,0,0,0,166.939,96.853Zm-2.614-1.289h2.623a1.587,1.587,0,0,0-.3-.888,1.218,1.218,0,0,0-.986-.46,1.265,1.265,0,0,0-.923.367A1.453,1.453,0,0,0,164.325,95.564Z"/><path d="M173.452,95.658v.721a.886.886,0,0,0-.556.185.863.863,0,0,0-.285.481,5.391,5.391,0,0,0-.075,1.042q0,.738-.026.973a1.819,1.819,0,0,1-.149.6,1.067,1.067,0,0,1-.267.359,1.113,1.113,0,0,1-.407.206,2.212,2.212,0,0,1-.548.048h-.248v-.7h.136a.831.831,0,0,0,.612-.166,1.222,1.222,0,0,0,.15-.745q0-1.105.039-1.4a1.773,1.773,0,0,1,.283-.785,1.378,1.378,0,0,1,.6-.458,1.5,1.5,0,0,1-.717-.644,3.157,3.157,0,0,1-.207-1.352c0-.575-.008-.919-.022-1.031a.593.593,0,0,0-.175-.413.953.953,0,0,0-.565-.117h-.136v-.695h.248a2.007,2.007,0,0,1,.628.071,1.012,1.012,0,0,1,.468.327,1.213,1.213,0,0,1,.242.58,8.562,8.562,0,0,1,.059,1.146,5.815,5.815,0,0,0,.075,1.1.856.856,0,0,0,.285.48A.887.887,0,0,0,173.452,95.658Z"/></g><g style="isolation:isolate"><path d="M96.133,107.107v-.743l4.3-1.813v.792l-3.407,1.4,3.407,1.411v.792Z"/><path d="M100.929,110.054l1.88-6.707h.637l-1.876,6.707Z"/><path d="M103.725,108.541l.788-.124a1.1,1.1,0,0,0,.369.726,1.287,1.287,0,0,0,.847.252,1.244,1.244,0,0,0,.814-.224.668.668,0,0,0,.266-.524.483.483,0,0,0-.235-.424,3.409,3.409,0,0,0-.814-.271,7.334,7.334,0,0,1-1.214-.382,1.161,1.161,0,0,1-.688-1.078,1.216,1.216,0,0,1,.143-.581,1.29,1.29,0,0,1,.392-.445,1.673,1.673,0,0,1,.506-.232,2.429,2.429,0,0,1,.688-.095,2.728,2.728,0,0,1,.972.159,1.326,1.326,0,0,1,.617.431,1.683,1.683,0,0,1,.274.728l-.779.106a.848.848,0,0,0-.307-.566,1.123,1.123,0,0,0-.719-.2,1.3,1.3,0,0,0-.783.181.529.529,0,0,0-.235.424.442.442,0,0,0,.1.28.709.709,0,0,0,.305.212q.12.043.7.2a9.717,9.717,0,0,1,1.18.369,1.2,1.2,0,0,1,.524.418,1.171,1.171,0,0,1,.19.681,1.333,1.333,0,0,1-.232.749,1.491,1.491,0,0,1-.67.545,2.449,2.449,0,0,1-.992.193,2.2,2.2,0,0,1-1.4-.381A1.769,1.769,0,0,1,103.725,108.541Z"/><path d="M110.312,109.231l.115.7a3.036,3.036,0,0,1-.6.07,1.353,1.353,0,0,1-.672-.137.777.777,0,0,1-.337-.36,2.89,2.89,0,0,1-.1-.941v-2.7h-.584v-.619h.584v-1.164l.792-.477v1.641h.8v.619h-.8v2.747a1.393,1.393,0,0,0,.042.439.334.334,0,0,0,.137.154.524.524,0,0,0,.272.058A2.54,2.54,0,0,0,110.312,109.231Z"/><path d="M111.056,111.753l-.089-.748a1.742,1.742,0,0,0,.456.071.859.859,0,0,0,.424-.089.7.7,0,0,0,.261-.248,3.7,3.7,0,0,0,.244-.593c.015-.043.038-.108.07-.194l-1.782-4.707h.858l.978,2.721q.19.518.34,1.088a10.885,10.885,0,0,1,.328-1.071l1-2.738h.8l-1.787,4.778a9.409,9.409,0,0,1-.447,1.066,1.587,1.587,0,0,1-.486.578,1.155,1.155,0,0,1-.655.184A1.619,1.619,0,0,1,111.056,111.753Z"/><path d="M115.6,109.943v-6.485h.8v6.485Z"/><path d="M120.85,108.431l.823.1a2.005,2.005,0,0,1-.721,1.119,2.441,2.441,0,0,1-2.98-.236,2.486,2.486,0,0,1-.6-1.781,2.6,2.6,0,0,1,.61-1.84,2.065,2.065,0,0,1,1.583-.655,2.014,2.014,0,0,1,1.541.641,2.556,2.556,0,0,1,.6,1.8c0,.048,0,.118-.005.213h-3.5a1.811,1.811,0,0,0,.438,1.185,1.3,1.3,0,0,0,.982.412,1.223,1.223,0,0,0,.748-.23A1.529,1.529,0,0,0,120.85,108.431Zm-2.615-1.288h2.624a1.588,1.588,0,0,0-.3-.889,1.218,1.218,0,0,0-.986-.46,1.265,1.265,0,0,0-.923.367A1.455,1.455,0,0,0,118.235,107.143Z"/><path d="M126.867,107.107l-4.3,1.836v-.792l3.4-1.411-3.4-1.4v-.792l4.3,1.813Z"/></g></g><circle cx="138.926" cy="53.567" r="3.081" style="fill:#ff7f2a;stroke:#dfdfdf"/><path d="M138.926,53.164V72.745" style="fill:none;stroke:#ff7f2a;stroke-width:6px"/><circle cx="138.926" cy="71.839" r="3.081" style="fill:#ff7f2a;stroke:#dfdfdf"/><circle cx="9.846" cy="53.567" r="3.081" style="stroke:#dfdfdf"/><circle cx="9.846" cy="71.839" r="3.081" style="fill:#ff7f2a;stroke:#dfdfdf"/><path d="M9.564,53.164V71.738" style="fill:none;stroke:#ff7f2a;stroke-width:6px"/><path d="M107.894,151.067c-39.84,0-39.74-32.693-21.669-37.525" style="fill:none;stroke:#b3b3b3;stroke-width:4px"/><path d="M89.656,111.569,84.845,119.9l-4.807-8.326Z" style="fill:#b3b3b3"/><path d="M92.643,94.263c-45.2,28.264-74.8,32.039-74.8,1.762" style="fill:none;stroke:#999;stroke-width:4px"/><path d="M18.146,89.575l4.807,8.343H13.339Z" style="fill:#b3b3b3"/></svg>